<svg width="59" height="29" viewBox="0 0 59 29" fill="none" xmlns="http://www.w3.org/2000/svg">
<circle cx="30.2383" cy="21.494" r="5.41304" transform="rotate(-63.9967 30.2383 21.494)" fill="url(#paint0_linear_520_20)"/>
<circle cx="3.4972" cy="6.75283" r="2.61533" transform="rotate(-63.9967 3.4972 6.75283)" fill="url(#paint1_linear_520_20)"/>
<ellipse cx="44.8443" cy="13.2898" rx="13.2804" ry="13.1625" transform="rotate(-0.551258 44.8443 13.2898)" fill="url(#paint2_linear_520_20)"/>
<circle cx="42.5" cy="12.7556" r="11.5" fill="#FFFEFE" fill-opacity="0.99"/>
<mask id="path-5-outside-1_520_20" maskUnits="userSpaceOnUse" x="38" y="10.2556" width="14" height="8" fill="black">
<rect fill="white" x="38" y="10.2556" width="14" height="8"/>
<path d="M42.4781 15.5603L38.7906 13.8494L42.4781 12.0994L42.6344 12.4509L39.6578 13.8494L42.6344 15.2166L42.4781 15.5603ZM46.2969 10.7712L46.6328 10.9119L43.7031 17.2947L43.3672 17.1384L46.2969 10.7712ZM47.5219 12.1384L51.2094 13.8494L47.5219 15.5994L47.3656 15.2478L50.3422 13.8494L47.3656 12.4822L47.5219 12.1384Z"/>
</mask>
<path d="M42.4781 15.5603L38.7906 13.8494L42.4781 12.0994L42.6344 12.4509L39.6578 13.8494L42.6344 15.2166L42.4781 15.5603ZM46.2969 10.7712L46.6328 10.9119L43.7031 17.2947L43.3672 17.1384L46.2969 10.7712ZM47.5219 12.1384L51.2094 13.8494L47.5219 15.5994L47.3656 15.2478L50.3422 13.8494L47.3656 12.4822L47.5219 12.1384Z" fill="#274546"/>
<path d="M42.4781 15.5603L42.4255 15.6737L42.5398 15.7267L42.5919 15.612L42.4781 15.5603ZM38.7906 13.8494L38.737 13.7364L38.4964 13.8506L38.738 13.9628L38.7906 13.8494ZM42.4781 12.0994L42.5924 12.0486L42.5403 11.9315L42.4245 11.9864L42.4781 12.0994ZM42.6344 12.4509L42.6875 12.5641L42.7983 12.512L42.7486 12.4002L42.6344 12.4509ZM39.6578 13.8494L39.6047 13.7362L39.3611 13.8506L39.6056 13.963L39.6578 13.8494ZM42.6344 15.2166L42.7482 15.2683L42.7997 15.1549L42.6865 15.103L42.6344 15.2166ZM42.5307 15.4469L38.8432 13.736L38.738 13.9628L42.4255 15.6737L42.5307 15.4469ZM38.8442 13.9623L42.5317 12.2123L42.4245 11.9864L38.737 13.7364L38.8442 13.9623ZM42.3639 12.1501L42.5201 12.5017L42.7486 12.4002L42.5924 12.0486L42.3639 12.1501ZM42.5812 12.3378L39.6047 13.7362L39.711 13.9625L42.6875 12.5641L42.5812 12.3378ZM39.6056 13.963L42.5822 15.3301L42.6865 15.103L39.71 13.7358L39.6056 13.963ZM42.5206 15.1648L42.3643 15.5086L42.5919 15.612L42.7482 15.2683L42.5206 15.1648ZM46.2969 10.7712L46.3451 10.6559L46.2338 10.6093L46.1833 10.719L46.2969 10.7712ZM46.6328 10.9119L46.7464 10.964L46.8004 10.8465L46.6811 10.7966L46.6328 10.9119ZM43.7031 17.2947L43.6504 17.408L43.7643 17.461L43.8167 17.3468L43.7031 17.2947ZM43.3672 17.1384L43.2536 17.0862L43.2016 17.1993L43.3145 17.2518L43.3672 17.1384ZM46.2486 10.8865L46.5845 11.0272L46.6811 10.7966L46.3451 10.6559L46.2486 10.8865ZM46.5192 10.8597L43.5895 17.2425L43.8167 17.3468L46.7464 10.964L46.5192 10.8597ZM43.7558 17.1813L43.4199 17.0251L43.3145 17.2518L43.6504 17.408L43.7558 17.1813ZM43.4807 17.1907L46.4104 10.8235L46.1833 10.719L43.2536 17.0862L43.4807 17.1907ZM47.5219 12.1384L47.5745 12.025L47.4602 11.972L47.4081 12.0867L47.5219 12.1384ZM51.2094 13.8494L51.263 13.9623L51.5036 13.8481L51.262 13.736L51.2094 13.8494ZM47.5219 15.5994L47.4076 15.6501L47.4597 15.7672L47.5755 15.7123L47.5219 15.5994ZM47.3656 15.2478L47.3125 15.1347L47.2017 15.1867L47.2514 15.2986L47.3656 15.2478ZM50.3422 13.8494L50.3953 13.9625L50.6389 13.8481L50.3944 13.7358L50.3422 13.8494ZM47.3656 12.4822L47.2518 12.4305L47.2003 12.5438L47.3135 12.5958L47.3656 12.4822ZM47.4693 12.2518L51.1568 13.9628L51.262 13.736L47.5745 12.025L47.4693 12.2518ZM51.1558 13.7364L47.4683 15.4864L47.5755 15.7123L51.263 13.9623L51.1558 13.7364ZM47.6361 15.5486L47.4799 15.197L47.2514 15.2986L47.4076 15.6501L47.6361 15.5486ZM47.4188 15.3609L50.3953 13.9625L50.289 13.7362L47.3125 15.1347L47.4188 15.3609ZM50.3944 13.7358L47.4178 12.3686L47.3135 12.5958L50.29 13.963L50.3944 13.7358ZM47.4794 12.5339L47.6357 12.1902L47.4081 12.0867L47.2518 12.4305L47.4794 12.5339Z" fill="black" mask="url(#path-5-outside-1_520_20)"/>
<path d="M9.526 18.5436L4.18 6.33961H6.142L10.102 16.0956L13.666 6.33961H14.566L9.814 18.5436H9.526ZM20.6952 16.2456C20.6952 16.9356 20.9552 17.4806 21.4752 17.8806L20.6952 18.4356L19.4802 17.3406C19.0702 17.7306 18.7052 18.0106 18.3852 18.1806C18.0652 18.3506 17.6852 18.4356 17.2452 18.4356C16.8152 18.4356 16.4152 18.2706 16.0452 17.9406C15.6852 17.6006 15.5052 17.0206 15.5052 16.2006V11.4756H16.7802V16.2756C16.7802 16.7556 16.8652 17.1206 17.0352 17.3706C17.2152 17.6106 17.5202 17.7306 17.9502 17.7306C18.3902 17.7306 18.8802 17.4106 19.4202 16.7706V11.4756H20.6952V16.2456ZM23.9273 16.9056C23.9273 17.0956 24.0673 17.2256 24.3473 17.2956C24.6373 17.3656 25.1873 17.4006 25.9973 17.4006C26.8073 17.4006 27.4573 17.4906 27.9473 17.6706C28.4373 17.8506 28.6823 18.1906 28.6823 18.6906C28.6823 19.4306 28.3173 20.0956 27.5873 20.6856C26.8673 21.2856 25.9823 21.5856 24.9323 21.5856C24.1723 21.5856 23.5473 21.4406 23.0573 21.1506C22.5773 20.8706 22.3373 20.4656 22.3373 19.9356C22.3373 19.1856 22.7473 18.6306 23.5673 18.2706C23.1073 18.1006 22.8773 17.7856 22.8773 17.3256C22.8773 16.8556 23.2373 16.3456 23.9573 15.7956C23.2073 15.4056 22.8323 14.7706 22.8323 13.8906C22.8323 13.0006 23.1073 12.3456 23.6573 11.9256C24.2173 11.5056 24.8423 11.2956 25.5323 11.2956C26.0223 11.2956 26.4923 11.4306 26.9423 11.7006L28.2623 11.3256L28.5623 11.9706L27.6323 12.4356C27.8223 12.7656 27.9173 13.1506 27.9173 13.5906C27.9173 14.0306 27.8273 14.4206 27.6473 14.7606C27.4773 15.0906 27.2523 15.3456 26.9723 15.5256C26.4123 15.8856 25.8073 16.0656 25.1573 16.0656C25.0573 16.0656 24.9173 16.0556 24.7373 16.0356C24.5673 16.0856 24.3873 16.1956 24.1973 16.3656C24.0173 16.5356 23.9273 16.7156 23.9273 16.9056ZM26.7323 13.7256C26.7323 13.2056 26.5923 12.7556 26.3123 12.3756C26.0423 11.9856 25.7023 11.7906 25.2923 11.7906C24.8923 11.7906 24.5723 11.9656 24.3323 12.3156C24.0923 12.6656 23.9723 13.1206 23.9723 13.6806C23.9723 14.2306 24.1073 14.6906 24.3773 15.0606C24.6473 15.4206 24.9723 15.6006 25.3523 15.6006C26.2723 15.6006 26.7323 14.9756 26.7323 13.7256ZM25.1723 20.8956C26.0023 20.8956 26.7073 20.6656 27.2873 20.2056C27.8673 19.7456 28.1573 19.2856 28.1573 18.8256C27.6473 18.6156 26.9323 18.5106 26.0123 18.5106C25.1023 18.5106 24.4723 18.4806 24.1223 18.4206C23.6823 18.7906 23.4623 19.1856 23.4623 19.6056C23.4623 20.4656 24.0323 20.8956 25.1723 20.8956ZM31.7308 12.4356C32.1508 12.0356 32.5158 11.7456 32.8258 11.5656C33.1458 11.3856 33.5208 11.2956 33.9508 11.2956C34.3808 11.2956 34.7758 11.4656 35.1358 11.8056C35.5058 12.1456 35.6908 12.7306 35.6908 13.5606V18.2556H34.4158V13.7106C34.4158 13.2206 34.3258 12.8556 34.1458 12.6156C33.9758 12.3656 33.6758 12.2406 33.2458 12.2406C32.8258 12.2406 32.3358 12.5206 31.7758 13.0806V18.2556H30.5008V13.5456C30.5008 12.8656 30.2458 12.3206 29.7358 11.9106L30.5008 11.3406L31.7308 12.4356Z" fill="#274546"/>
<defs>
<linearGradient id="paint0_linear_520_20" x1="30.2383" y1="16.0809" x2="30.2383" y2="26.907" gradientUnits="userSpaceOnUse">
<stop stop-color="#569598"/>
<stop offset="1" stop-color="white"/>
</linearGradient>
<linearGradient id="paint1_linear_520_20" x1="3.4972" y1="4.13749" x2="3.4972" y2="9.36816" gradientUnits="userSpaceOnUse">
<stop stop-color="#569598"/>
<stop offset="1" stop-color="white"/>
</linearGradient>
<linearGradient id="paint2_linear_520_20" x1="55.9511" y1="1.32463" x2="39.3727" y2="24.9427" gradientUnits="userSpaceOnUse">
<stop offset="0.0507809" stop-color="#60AAAC"/>
<stop offset="0.726707" stop-color="#212A2A"/>
</linearGradient>
</defs>
</svg>
